<?xml version="1.0" encoding="utf-8"?>
<!-- Generator: Adobe Illustrator 15.1.0, SVG Export Plug-In . SVG Version: 6.00 Build 0)  -->
<!DOCTYPE svg PUBLIC "-//W3C//DTD SVG 1.1//EN" "http://www.w3.org/Graphics/SVG/1.1/DTD/svg11.dtd">
<svg version="1.1" id="Capa_1" xmlns="http://www.w3.org/2000/svg" xmlns:xlink="http://www.w3.org/1999/xlink" x="0px" y="0px"
	 width="59px" height="45px" viewBox="0 0 59 45" enable-background="new 0 0 59 45" xml:space="preserve">
<g>
	<path fill="#7F52EF" stroke="#000000" stroke-miterlimit="10" d="M18.599,12.22c-3.967,9.521,0.556,20.498,10.08,24.461
		C32.643,27.159,28.122,16.186,18.599,12.22z"/>
	<path fill="#A57FE2" stroke="#000000" stroke-miterlimit="10" d="M9.969,17.974c0,10.315,8.394,18.708,18.709,18.708
		C28.678,26.366,20.285,17.974,9.969,17.974z"/>
	<path fill="#621FCC" stroke="#000000" stroke-miterlimit="10" d="M38.757,12.22c3.965,9.521-0.558,20.498-10.079,24.461
		C24.712,27.159,29.232,16.186,38.757,12.22z"/>
	<path fill="#7F52EF" stroke="#000000" stroke-miterlimit="10" d="M47.385,17.974c0,10.315-8.393,18.708-18.707,18.708
		C28.679,26.366,37.069,17.974,47.385,17.974L47.385,17.974z"/>
	<path fill="#A57FE2" stroke="#000000" stroke-miterlimit="10" d="M28.679,10.225c-0.001,0-3.854,13.229-3.854,13.229l3.852,13.229
		C35.971,29.387,35.971,17.519,28.679,10.225z"/>
	<path fill="#D0B6EF" stroke="#000000" stroke-miterlimit="10" d="M28.676,36.682V10.226C21.383,17.519,21.383,29.387,28.676,36.682
		z"/>
</g>
</svg>
