<?xml version="1.0" encoding="utf-8"?>
<!-- Generator: Adobe Illustrator 15.1.0, SVG Export Plug-In . SVG Version: 6.00 Build 0)  -->
<!DOCTYPE svg PUBLIC "-//W3C//DTD SVG 1.1//EN" "http://www.w3.org/Graphics/SVG/1.1/DTD/svg11.dtd">
<svg version="1.1" id="Capa_1" xmlns="http://www.w3.org/2000/svg" xmlns:xlink="http://www.w3.org/1999/xlink" x="0px" y="0px"
	 width="59px" height="45px" viewBox="0 0 59 45" enable-background="new 0 0 59 45" xml:space="preserve">
<g>
	<path fill="#96F4D6" stroke="#000000" stroke-miterlimit="10" d="M20.068,13.632c-3.974,9.543,0.558,20.539,10.1,24.511
		C34.142,28.602,29.61,17.605,20.068,13.632z"/>
	<path fill="#3EF4D6" stroke="#000000" stroke-miterlimit="10" d="M11.422,19.398c0,10.335,8.41,18.745,18.746,18.745
		C30.168,27.806,21.759,19.398,11.422,19.398z"/>
	<path fill="#96F4D6" stroke="#000000" stroke-miterlimit="10" d="M40.268,13.632c3.974,9.543-0.558,20.539-10.1,24.511
		C26.194,28.602,30.728,17.605,40.268,13.632z"/>
	<path fill="#3EF4D6" stroke="#000000" stroke-miterlimit="10" d="M48.914,19.398c0,10.335-8.409,18.745-18.746,18.745
		C30.168,27.806,38.577,19.398,48.914,19.398L48.914,19.398z"/>
	<path fill="#BFF7DA" stroke="#000000" stroke-miterlimit="10" d="M30.168,11.633c0,0.001-3.861,13.255-3.861,13.255l3.861,13.255
		C37.478,30.835,37.478,18.94,30.168,11.633z"/>
	<path fill="#ADF4D6" stroke="#000000" stroke-miterlimit="10" d="M30.168,38.143V11.634C22.859,18.94,22.859,30.835,30.168,38.143z
		"/>
</g>
</svg>
