<svg width="117" height="121" xmlns="http://www.w3.org/2000/svg">
 <g>
  <title>background</title>
  <rect fill="none" id="canvas_background" height="123" width="119" y="-1" x="-1"/>
 </g>

 <g>
  <title>Layer 1</title>
  <g id="svg_10" stroke="null">
   <g id="svg_11" stroke="null">
    <path fill="#444242" id="svg_12" d="m113.59092,38.36046l-32.95316,-32.9529c-4.54492,-4.54517 -11.93684,-4.53948 -16.47658,0l-60.41293,60.41344c-4.52705,4.5268 -4.57261,11.90397 0,16.47632l32.95265,32.95265c4.55294,4.5532 11.92286,4.55398 16.47632,0l60.4137,-60.41344c4.53482,-4.53482 4.54932,-11.92701 0,-16.47606l0,-0.00001zm-46.31377,-25.0844l-6.17733,46.14913c-0.23194,1.7313 -1.60264,3.10225 -3.3342,3.33394l-46.14887,6.17733l55.6604,-55.6604zm-24.18407,97.15356c-0.32669,-0.17706 -0.62982,-0.4015 -0.90008,-0.6715l-32.70051,-32.70103l37.87214,-5.06964l-4.27155,38.44216l0,0.00001zm8.30158,-4.38105l3.90241,-35.12298l3.4991,-0.46829c5.19415,-0.69531 9.30676,-4.80844 10.00182,-10.00156l0.46829,-3.49935l35.12324,-3.90267l-52.99485,52.99485l-0.00001,0zm18.93348,-57.02462l5.06964,-37.87214l32.70103,32.70077c0.27259,0.27259 0.49443,0.57701 0.66865,0.90008l-38.43932,4.27129z" stroke="null"/>
   </g>
  </g>
  <g id="svg_13"/>
  <g id="svg_14"/>
  <g id="svg_15"/>
  <g id="svg_16"/>
  <g id="svg_17"/>
  <g id="svg_18"/>
  <g id="svg_19"/>
  <g id="svg_20"/>
  <g id="svg_21"/>
  <g id="svg_22"/>
  <g id="svg_23"/>
  <g id="svg_24"/>
  <g id="svg_25"/>
  <g id="svg_26"/>
  <g id="svg_27"/>
 </g>
</svg>