<?xml version="1.0" encoding="utf-8"?>
<!-- Generator: Adobe Illustrator 15.1.0, SVG Export Plug-In . SVG Version: 6.00 Build 0)  -->
<!DOCTYPE svg PUBLIC "-//W3C//DTD SVG 1.1//EN" "http://www.w3.org/Graphics/SVG/1.1/DTD/svg11.dtd">
<svg version="1.1" id="Capa_1" xmlns="http://www.w3.org/2000/svg" xmlns:xlink="http://www.w3.org/1999/xlink" x="0px" y="0px"
	 width="59px" height="45px" viewBox="0 0 59 45" enable-background="new 0 0 59 45" xml:space="preserve">
<g>
	<path fill="#EDEEF0" stroke="#444242" stroke-miterlimit="10" d="M22.533,12.598c-4.001,9.604,0.562,20.676,10.168,24.675
		C36.698,27.666,32.14,16.597,22.533,12.598z"/>
	<path fill="#EDEEF0" stroke="#444242" stroke-miterlimit="10" d="M13.828,18.401c0,10.406,8.466,18.872,18.873,18.872
		C32.699,26.867,24.235,18.401,13.828,18.401z"/>
	<path fill="#EDEEF0" stroke="#444242" stroke-miterlimit="10" d="M42.865,12.598c4.002,9.604-0.382,20.646-9.988,24.647
		C28.877,27.638,33.261,16.597,42.865,12.598z"/>
	<path fill="#EDEEF0" stroke="#444242" stroke-miterlimit="10" d="M51.571,18.401c0,10.406-8.36,18.872-18.766,18.872
		C32.806,26.867,41.166,18.401,51.571,18.401L51.571,18.401z"/>
	<path fill="#EDEEF0" stroke="#444242" stroke-miterlimit="10" d="M33.21,10.597c0,0.001-3.684,13.51-3.684,13.51l3.775,13.345
		C40.659,30.092,40.568,17.956,33.21,10.597z"/>
	<path fill="#EDEEF0" stroke="#444242" stroke-miterlimit="10" d="M32.698,37.272V10.584C25.342,17.941,25.342,29.915,32.698,37.272
		z"/>
</g>
</svg>
