<?xml version="1.0" standalone="no"?>
<!DOCTYPE svg PUBLIC "-//W3C//DTD SVG 20010904//EN"
 "http://www.w3.org/TR/2001/REC-SVG-20010904/DTD/svg10.dtd">
<svg version="1.0" xmlns="http://www.w3.org/2000/svg"
 width="624.000000pt" height="624.000000pt" viewBox="0 0 624.000000 624.000000"
 preserveAspectRatio="xMidYMid meet">
<metadata>
Created by potrace 1.11, written by Peter Selinger 2001-2013
</metadata>
<g transform="translate(0.000000,624.000000) scale(0.100000,-0.100000)"
fill="#000000" stroke="none">
<path d="M3107 5033 c-67 -72 -113 -125 -157 -183 -19 -25 -38 -49 -43 -55
-33 -41 -103 -145 -151 -225 -50 -83 -166 -310 -178 -348 -2 -9 -17 -1 -44 25
-68 65 -176 158 -239 204 -33 24 -65 49 -72 54 -20 17 -38 29 -59 42 -189 117
-202 124 -323 184 -161 78 -149 77 -174 21 -11 -26 -22 -49 -22 -52 -1 -3 -15
-48 -32 -100 -39 -120 -76 -260 -88 -340 -1 -8 -6 -33 -10 -55 -5 -22 -9 -51
-11 -65 -1 -14 -3 -25 -4 -25 -4 0 -22 -213 -24 -287 0 -36 -4 -69 -7 -72 -5
-5 -81 20 -134 44 -35 15 -228 72 -285 84 -14 3 -36 8 -50 11 -52 12 -109 23
-170 31 -25 3 -55 7 -68 9 -51 8 -152 16 -245 19 l-99 4 7 -147 c4 -80 9 -150
12 -154 2 -4 6 -31 8 -60 2 -29 6 -63 9 -77 3 -13 8 -42 12 -64 3 -22 7 -43 9
-47 2 -3 7 -21 10 -40 39 -221 202 -636 317 -806 16 -24 25 -43 21 -43 -4 0
-3 -4 2 -8 9 -6 84 -113 120 -171 6 -9 12 -18 15 -21 3 -3 21 -25 40 -50 19
-25 41 -52 49 -61 9 -9 38 -42 66 -74 67 -78 213 -219 310 -300 95 -79 304
-225 322 -225 7 0 13 -4 13 -9 0 -11 344 -183 410 -204 25 -9 59 -21 75 -28
17 -7 36 -14 43 -16 6 -1 18 -5 25 -6 6 -2 19 -7 27 -10 38 -15 227 -64 285
-74 11 -1 45 -7 75 -13 30 -5 75 -12 100 -15 25 -4 63 -9 85 -13 95 -15 554
-7 653 13 11 2 42 7 69 11 58 8 65 9 128 24 28 6 61 13 75 15 14 2 56 13 94
25 38 12 76 23 85 25 18 4 176 61 206 74 11 5 38 17 60 26 77 33 171 80 260
131 128 72 136 77 157 96 10 10 25 18 33 18 8 0 15 5 15 10 0 6 8 14 18 17 9
4 71 50 137 102 180 144 406 378 495 511 8 13 24 35 36 49 28 36 109 162 144
224 48 84 150 296 150 310 0 7 4 17 9 23 8 7 45 101 55 139 2 6 6 18 10 27 4
9 9 22 10 30 2 7 6 20 9 28 3 8 9 29 13 45 10 41 11 45 14 48 2 3 9 37 14 69
3 15 7 31 9 35 6 10 43 215 52 288 6 50 13 149 17 260 l3 60 -80 -1 c-189 -3
-378 -28 -565 -74 -116 -28 -293 -84 -364 -115 -21 -9 -40 -14 -43 -11 -3 2
-6 44 -8 93 -4 94 -13 205 -19 238 -2 11 -7 43 -10 70 -4 28 -10 66 -12 85 -7
47 -61 264 -81 320 -8 25 -16 52 -18 60 -6 22 -63 171 -68 176 -6 6 -175 -72
-272 -125 -180 -99 -416 -271 -551 -402 -57 -55 -70 -59 -80 -26 -8 28 -102
217 -138 277 -15 25 -34 60 -43 78 -9 17 -20 32 -25 32 -4 0 -8 7 -8 15 0 8
-4 15 -10 15 -5 0 -10 7 -10 15 0 8 -4 15 -10 15 -5 0 -10 5 -10 10 0 6 -5 16
-10 23 -6 7 -34 44 -62 82 -53 71 -73 95 -143 174 -59 67 -103 111 -108 111
-3 0 -30 -26 -60 -57z"/>
</g>
</svg>
